<svg width="184" height="48" viewBox="0 0 184 48" fill="none" xmlns="http://www.w3.org/2000/svg">
<g clip-path="url(#clip0_2403_706)">
<path d="M54.5464 19.3679C52.976 16.0346 50.447 13.1241 47.2114 10.9265C43.9758 8.7289 40.1465 7.32087 36.1053 6.84275C32.064 6.36463 27.9519 6.83312 24.1787 8.20153C20.4055 9.56994 17.103 11.7905 14.6003 14.6419C12.0976 17.4932 10.4822 20.8759 9.91494 24.4527C9.3477 28.0294 9.84849 31.6755 11.3674 35.0274C12.8863 38.3793 15.3703 41.32 18.5718 43.5565C21.7733 45.793 25.5805 47.2472 29.614 47.774C29.0857 46.0874 28.5483 44.2233 28.0746 42.2461C29.4526 43.038 30.903 43.7264 32.4106 44.304C32.4106 44.304 32.5199 46.0471 32.6657 47.9919C34.2947 48.0168 35.9221 47.8897 37.521 47.6126C37.4797 47.4098 37.4797 47.2021 37.521 46.9993C37.7851 45.4903 38.5139 42.7707 38.6596 41.0195C39.7102 40.149 40.6014 39.1389 41.3014 38.0256L41.2467 38.3806C40.7457 41.8184 39.6981 45.4903 39.0605 46.5071C38.854 46.8436 38.5999 47.1555 38.3044 47.4351C41.6018 46.7498 44.6915 45.4375 47.3593 43.5889C50.0272 41.7404 52.2093 39.4 53.7544 36.73C55.2995 34.0599 56.1706 31.1241 56.3074 28.1261C56.4441 25.1281 55.8432 22.1396 54.5464 19.3679ZM53.2073 22.4264C52.8065 22.7734 51.9775 23.0074 51.8409 21.9583C51.7042 20.9092 51.6678 20.1748 51.6678 20.1748C51.6678 20.1748 49.9097 17.4069 49.2538 17.3746C48.598 17.3423 43.9431 20.1749 42.7133 21.4096C41.6475 22.4506 41.438 22.3779 41.438 24.2098C41.438 25.5898 41.6384 30.803 41.5291 34.7895L34.105 36.5407C31.7715 37.134 29.3984 37.5976 26.9997 37.9287L26.0887 33.2239H25.9612L23.6201 22.5958C23.6201 22.5958 20.1494 21.4338 18.8741 21.119C18.2753 20.8869 17.614 20.8115 16.9684 20.9016C16.3227 20.9917 15.7197 21.2435 15.2304 21.6274C14.7312 22.0146 14.332 22.4926 14.0601 23.0287C13.7881 23.5648 13.6498 24.1466 13.6544 24.7344C13.847 25.1094 13.9936 25.5017 14.0917 25.9045C14.1372 26.2919 12.9986 26.2515 12.2698 26.2515C11.5411 26.2515 11.4318 25.0894 12.0056 23.7256C12.4534 22.6769 13.0083 21.6667 13.6636 20.7075C14.1564 19.8506 14.7921 19.0644 15.5492 18.3753C15.5492 18.3753 15.6767 18.1009 16.6879 18.1816C17.699 18.2623 23.3195 18.5286 23.3195 18.5286L23.365 16.6967C29.4741 15.9494 35.6354 15.5881 41.8024 15.6153C41.8024 16.1076 41.8024 16.5999 41.8024 17.0921C44.1382 16.1478 46.6535 15.6003 49.2174 15.4781C49.3546 15.4751 49.4905 15.5022 49.6129 15.5572C49.7353 15.6121 49.8404 15.6931 49.9188 15.7929C50.2285 16.1399 52.1142 18.2139 52.3328 18.5124C52.9451 19.2877 53.5019 20.0963 53.9998 20.9334C53.8291 21.4635 53.5614 21.9651 53.2073 22.4183V22.4264Z" fill="#FDC305"/>
<path d="M51.4314 17.4876C51.8596 17.9718 52.2331 18.3995 52.3424 18.5286C52.9547 19.3039 53.5115 20.1124 54.0094 20.9496C53.8361 21.4622 53.5716 21.9471 53.226 22.386C52.8252 22.733 51.9962 22.967 51.8596 21.918C51.7229 20.8689 51.6683 20.1748 51.6683 20.1748C51.6683 20.1748 49.9102 17.4069 49.2543 17.3746C48.5984 17.3423 43.9435 20.1748 42.7138 21.4095C41.648 22.4506 41.4385 22.3779 41.4385 24.2098C41.4385 25.4203 41.5933 29.5763 41.5569 33.2724C43.2057 33.4338 45.6288 33.8373 46.3575 34.7895C46.3575 34.7895 46.0934 28.9953 53.4719 32.0296C53.4719 32.0296 53.727 24.1291 63.9113 26.1547C60.4492 22.5537 56.2051 19.6063 51.4314 17.4876Z" fill="#F06351"/>
<path d="M41.8393 15.6153C41.8764 11.1436 41.4494 6.67826 40.564 2.27572C40.564 2.27572 40.4273 1.22663 39.7715 2.08204C39.2303 3.10468 38.8619 4.19234 38.6783 5.31002C34.7843 5.08867 30.8755 5.18051 27.0001 5.5844C26.2532 3.36516 24.9779 2.35642 24.3675 2.62273C23.7572 2.88904 23.6843 5.26967 23.6843 5.26967L23.3837 16.6967C29.4988 15.9487 35.6663 15.5873 41.8393 15.6153Z" fill="#F06351"/>
<path d="M41.3102 38.0256C41.4286 37.1621 41.4924 36.0161 41.5288 34.7492L34.1051 36.5003C31.7727 37.1072 29.3997 37.5843 27.0001 37.9287L28.0112 41.9637C28.0112 42.0525 28.0112 42.1412 28.075 42.23C29.4529 43.0219 30.9033 43.7102 32.4108 44.2878C34.614 43.3548 36.7123 42.2388 38.6777 40.9549V41.0034C39.7235 40.1371 40.6115 39.1326 41.3102 38.0256Z" fill="#E55645"/>
<path d="M29.1499 13.0894C29.1044 13.0087 30.0608 13.6382 30.4343 13.8319C30.8078 14.0256 30.9899 14.1708 30.9899 14.308C30.9899 14.4452 30.7531 14.5824 30.4252 14.5824C30.0973 14.5824 29.5872 14.4855 29.5143 14.3726C29.4414 14.2596 30.0608 14.3726 30.3705 14.3726H30.6347C30.0739 14.0091 29.574 13.5771 29.1499 13.0894Z" fill="black"/>
<path d="M35.9819 13.1782C35.9819 13.1782 35.071 14.2112 34.9891 14.2596C34.9071 14.308 34.8342 14.534 35.1621 14.4936C35.5386 14.4438 35.9101 14.3683 36.2734 14.2677C36.3736 14.2192 36.3372 14.1063 36.1641 14.1224C35.991 14.1385 35.5447 14.1627 35.2532 14.2112L36.0275 13.1863C36.0275 13.1863 36.0548 13.0894 35.9819 13.1782Z" fill="black"/>
<path d="M33.1216 18.1089C33.5438 17.9441 33.8928 17.6605 34.1144 17.302C34.3695 16.7693 34.1144 16.5676 33.7136 16.495C33.1623 16.4058 32.5932 16.5038 32.1196 16.7693C31.7643 17.0679 31.8099 17.3584 32.1196 17.5763C32.4273 17.7901 32.7639 17.969 33.1216 18.1089Z" fill="black"/>
<path d="M32.7935 19.1258C32.689 19.3088 32.5469 19.473 32.3745 19.61C32.1151 19.7949 31.7962 19.9022 31.4636 19.9166C30.9621 19.9602 30.4607 19.8333 30.0609 19.5615C29.8773 19.4664 29.7139 19.3435 29.5781 19.1984C29.487 19.1105 29.375 19.0416 29.2502 18.9966C29.2502 18.9966 29.9334 22.3134 31.5912 22.846C33.249 23.3786 33.5587 22.2327 33.6042 21.926C33.6597 21.0076 33.3993 20.0958 32.8573 19.3114C32.8573 19.0693 32.8391 19.2307 32.7935 19.1258Z" fill="#F06351"/>
<path d="M31.245 20.0457C30.8187 19.9914 30.4093 19.8612 30.0414 19.6629C29.6735 19.4645 29.3548 19.2022 29.1044 18.8917C29.082 18.8695 29.0696 18.8408 29.0696 18.811C29.0696 18.7813 29.082 18.7525 29.1044 18.7303C29.1163 18.7196 29.1305 18.7111 29.1461 18.7052C29.1618 18.6994 29.1786 18.6964 29.1955 18.6964C29.2125 18.6964 29.2293 18.6994 29.2449 18.7052C29.2606 18.7111 29.2747 18.7196 29.2866 18.7303C29.512 19.0105 29.798 19.2482 30.1279 19.4297C30.4579 19.6112 30.8252 19.7328 31.2086 19.7875C31.5119 19.7673 31.8055 19.6836 32.0652 19.5433C32.3249 19.403 32.5433 19.2101 32.7025 18.9805L32.83 18.8272L32.9211 19.0047C32.9211 19.0047 33.2672 19.618 33.832 19.6503C34.3967 19.6826 34.7975 19.3114 35.3167 18.6093C35.336 18.5836 35.3661 18.5658 35.4003 18.5597C35.4344 18.5537 35.4699 18.5599 35.4989 18.577C35.5279 18.5941 35.548 18.6207 35.5548 18.651C35.5617 18.6813 35.5547 18.7127 35.5353 18.7384C34.9281 19.5293 34.3542 19.9085 33.8137 19.8763C33.6048 19.8517 33.4048 19.7861 33.2283 19.6842C33.0517 19.5822 32.9032 19.4466 32.7935 19.2872C32.6153 19.5076 32.3839 19.6901 32.116 19.8214C31.8481 19.9526 31.5506 20.0292 31.245 20.0457Z" fill="black"/>
<path d="M33.0304 30.9079C34.9169 30.9079 36.4462 29.553 36.4462 27.8816C36.4462 26.2103 34.9169 24.8554 33.0304 24.8554C31.1439 24.8554 29.6146 26.2103 29.6146 27.8816C29.6146 29.553 31.1439 30.9079 33.0304 30.9079Z" fill="#FDC305"/>
<path d="M37.5575 25.4203L34.7064 26.4775L35.7539 21.9341L28.9222 29.8104L31.7733 28.7532L30.7258 33.3046L37.5575 25.4203ZM30.826 28.5111L34.6153 24.1453L33.8775 27.3732L35.6993 26.7115L31.8826 31.0854L32.6205 27.8574L30.826 28.5111Z" fill="#111111"/>
<path d="M29.5507 27.3248C30.1142 27.3248 30.5709 26.9202 30.5709 26.421C30.5709 25.9218 30.1142 25.5171 29.5507 25.5171C28.9873 25.5171 28.5305 25.9218 28.5305 26.421C28.5305 26.9202 28.9873 27.3248 29.5507 27.3248Z" fill="#111111"/>
<path d="M35.4901 30.6012C35.8875 30.6012 36.2097 30.3158 36.2097 29.9637C36.2097 29.6116 35.8875 29.3262 35.4901 29.3262C35.0926 29.3262 34.7704 29.6116 34.7704 29.9637C34.7704 30.3158 35.0926 30.6012 35.4901 30.6012Z" fill="#111111"/>
<path d="M36.3646 28.85C36.5407 28.85 36.6834 28.7236 36.6834 28.5676C36.6834 28.4116 36.5407 28.2851 36.3646 28.2851C36.1885 28.2851 36.0458 28.4116 36.0458 28.5676C36.0458 28.7236 36.1885 28.85 36.3646 28.85Z" fill="#111111"/>
<path d="M41.7938 17.076C40.1494 18.3892 38.6007 19.7935 37.1571 21.2804C35.7191 22.7567 34.0963 24.0833 32.32 25.2347C32.1196 24.807 30.8352 24.0081 30.8352 24.0081C30.8352 24.0081 27.9749 22.273 26.0983 20.9092C25.0839 20.1607 24.1283 19.3519 23.238 18.4882L21.4161 18.3995C24.046 21.8027 27.8989 24.3171 32.3474 25.5333C33.1308 25.4203 35.3352 24.0242 36.984 22.8864C38.9347 21.4167 40.7614 19.8227 42.4497 18.117C42.9034 17.6393 43.2553 17.0924 43.4881 16.503C42.4497 16.8097 41.7938 17.076 41.7938 17.076Z" fill="#F06351"/>
<path d="M23.6206 22.5958C23.6206 22.5958 20.1499 21.4338 18.8746 21.119C18.2758 20.8869 17.6145 20.8115 16.9689 20.9016C16.3232 20.9917 15.7201 21.2435 15.2309 21.6274C14.7317 22.0146 14.3325 22.4926 14.0606 23.0287C13.7886 23.5649 13.6503 24.1466 13.6549 24.7344C13.8475 25.1094 13.9941 25.5017 14.0922 25.9045C14.1377 26.2919 12.9991 26.2515 12.2703 26.2515C11.5416 26.2515 11.4322 25.0894 12.0061 23.7256C12.4539 22.6769 13.0088 21.6667 13.664 20.7075C8.69944 22.9993 0 28.2932 0 28.2932C2.48839 28.1603 4.98523 28.2251 7.46057 28.4869C12.243 28.9146 12.0152 32.2556 12.0152 32.2556C13.6973 31.8447 15.4116 31.5453 17.1438 31.3598C19.075 31.2468 19.2116 33.0706 19.2116 33.0706L19.6944 36.1856C20.4275 35.483 21.236 34.8451 22.1084 34.2811C23.2329 33.4836 24.6648 33.1072 26.0983 33.232L23.6206 22.5958Z" fill="#F06351"/>
<path d="M78.0307 33.8937C77.0923 32.6619 76.6437 31.1883 76.7555 29.7055V23.653C76.6371 22.1592 77.079 20.6727 78.0125 19.4243C78.8566 18.4613 80.2988 17.9825 82.3392 17.9879C84.3796 17.9933 85.7611 18.4156 86.4838 19.2549C87.3649 20.2949 87.7949 21.5809 87.6953 22.8783V24.2986H83.9242V22.7572C83.9191 22.3517 83.8795 21.947 83.8058 21.5467C83.7602 21.257 83.61 20.988 83.3776 20.7801C83.2342 20.6711 83.0677 20.5886 82.8878 20.5373C82.708 20.4861 82.5184 20.4671 82.3301 20.4815C82.0598 20.4458 81.7836 20.4847 81.5391 20.593C81.2946 20.7013 81.0937 20.8737 80.9638 21.0868C80.7243 21.6535 80.6189 22.2578 80.6541 22.8621V30.5447C80.6125 31.1531 80.7343 31.7615 81.0093 32.3201C81.1408 32.5216 81.3358 32.6848 81.5704 32.7894C81.8051 32.8941 82.0691 32.9357 82.3301 32.9092C82.5866 32.9413 82.848 32.9009 83.077 32.7937C83.306 32.6864 83.4909 32.5179 83.6054 32.312C83.8257 31.7442 83.9215 31.1444 83.8877 30.5447V28.9307H87.6588V30.3268C87.7698 31.6434 87.375 32.9545 86.5384 34.0471C85.7369 34.9348 84.3523 35.3705 82.3848 35.3705C80.4173 35.3705 78.8778 34.8864 78.0307 33.8937Z" fill="#111111"/>
<path d="M92.8333 18.2219H97.1509L100.794 35.1688H97.2056L96.5588 31.4243H93.5347L92.806 35.1446H89.1624L92.8333 18.2219ZM96.1581 29.2939L95.0103 22.4829L93.8717 29.2939H96.1581Z" fill="#111111"/>
<path d="M103.591 20.772H100.64V18.2219H110.405V20.772H107.49V35.1446H103.582L103.591 20.772Z" fill="#111111"/>
<path d="M118.066 18.2219H125.472V19.9812H120.735V25.5736H124.579V27.2441H120.735V33.4499H125.517V35.1446H118.066V18.2219Z" fill="#444444"/>
<path d="M127.668 18.2219H129.489L134.955 29.4633V18.2219H137.177V35.1688H135.474L130.009 23.6126V35.1446H127.75L127.668 18.2219Z" fill="#444444"/>
<path d="M140.12 18.2219H147.517V19.9812H142.78V25.5736H146.66V27.2441H142.816V33.4499H147.571V35.1446H140.12V18.2219Z" fill="#444444"/>
<path d="M149.712 18.2219H153.556C155.071 18.1139 156.58 18.4888 157.81 19.2791C158.721 19.9812 159.167 21.1271 159.167 22.7169C159.167 24.8689 158.381 26.1843 156.808 26.6631L159.541 35.1446H156.954L154.449 27.2038H152.381V35.1446H149.712V18.2219ZM153.356 25.4849C154.233 25.5601 155.111 25.3413 155.815 24.8716C156.102 24.5714 156.316 24.2226 156.444 23.8465C156.572 23.4704 156.613 23.075 156.562 22.6846C156.581 22.1371 156.491 21.591 156.298 21.0706C156.22 20.8788 156.099 20.7028 155.942 20.5531C155.786 20.4033 155.597 20.283 155.387 20.1991C154.796 19.9841 154.158 19.8877 153.52 19.9166H152.345V25.5171L153.356 25.4849Z" fill="#444444"/>
<path d="M162.757 33.8937C161.886 32.5918 161.483 31.0861 161.6 29.5763V23.9274C161.569 22.8373 161.722 21.7491 162.056 20.6994C162.319 19.9102 162.878 19.2241 163.64 18.7545C164.561 18.2629 165.627 18.0268 166.701 18.0767C167.396 18.0182 168.096 18.0947 168.754 18.301C169.412 18.5073 170.01 18.8384 170.509 19.271C171.383 20.3557 171.796 21.6791 171.675 23.0074V23.6369H169.17V23.1123C169.187 22.4849 169.132 21.8576 169.006 21.2401C168.923 20.8443 168.676 20.4903 168.313 20.2475C167.841 20.0003 167.295 19.885 166.747 19.9166C166.152 19.8715 165.56 20.0336 165.098 20.3685C164.72 20.6861 164.473 21.1065 164.397 21.5629C164.281 22.2276 164.229 22.8998 164.242 23.5723V29.8588C164.169 30.8141 164.354 31.7709 164.779 32.651C165.026 32.9216 165.34 33.1386 165.696 33.2854C166.053 33.4322 166.442 33.5048 166.835 33.4978C167.228 33.4908 167.614 33.4043 167.963 33.245C168.312 33.0856 168.616 32.8576 168.851 32.5783C169.29 31.6476 169.48 30.6395 169.406 29.6328V28.4385H166.983V26.768H171.811V35.1446H170.162L169.898 33.1997C169.69 33.8459 169.24 34.4104 168.623 34.8016C168.006 35.1928 167.258 35.3876 166.501 35.3544C165.788 35.4101 165.072 35.3053 164.417 35.05C163.763 34.7946 163.192 34.3969 162.757 33.8937Z" fill="#444444"/>
<path d="M177.35 29.1728L173.224 18.2219H175.701L178.625 26.3887L181.504 18.2219H184.009L179.91 29.1728V35.1446H177.359L177.35 29.1728Z" fill="#444444"/>
</g>
<defs>
<clipPath id="clip0_2403_706">
<rect width="184" height="48" fill="white"/>
</clipPath>
</defs>
</svg>
